<?xml version="1.0" encoding="UTF-8"?>
<!DOCTYPE svg PUBLIC "-//W3C//DTD SVG 1.1//EN" "http://www.w3.org/Graphics/SVG/1.1/DTD/svg11.dtd">
<!-- Creator: CorelDRAW X7 -->
<svg xmlns="http://www.w3.org/2000/svg" xml:space="preserve" width="3000px" height="3000px" version="1.1" style="shape-rendering:geometricPrecision; text-rendering:geometricPrecision; image-rendering:optimizeQuality; fill-rule:evenodd; clip-rule:evenodd"
viewBox="0 0 3000 3000"
 xmlns:xlink="http://www.w3.org/1999/xlink">
 <defs>
  <style type="text/css">
   <![CDATA[
    .fil0 {fill:none}
    .fil9 {fill:#FEFEFE}
    .fil3 {fill:black}
    .fil1 {fill:black}
    .fil4 {fill:#006316}
    .fil6 {fill:#8DA03C}
    .fil5 {fill:#F0C001}
    .fil13 {fill:#F2F2F2}
    .fil2 {fill:#F7D914}
    .fil7 {fill:white}
    .fil8 {fill:black;fill-rule:nonzero}
    .fil12 {fill:#B78E00;fill-rule:nonzero}
    .fil10 {fill:url(#id0)}
    .fil11 {fill:url(#id1)}
   ]]>
  </style>
  <linearGradient id="id0" gradientUnits="userSpaceOnUse" x1="1629.07" y1="1460.87" x2="1754.96" y2="1492.68">
   <stop offset="0" style="stop-opacity:1; stop-color:#F0C001"/>
   <stop offset="0.509804" style="stop-opacity:1; stop-color:#F7D914"/>
   <stop offset="1" style="stop-opacity:1; stop-color:#F0C001"/>
  </linearGradient>
  <linearGradient id="id1" gradientUnits="userSpaceOnUse" xlink:href="#id0" x1="1267.84" y1="1460.87" x2="1393.73" y2="1492.68">
  </linearGradient>
 </defs>
 <g id="Layer_x0020_1">
  <metadata id="CorelCorpID_0Corel-Layer"/>
  <polygon class="fil0" points="0,0 3000,0 3000,3000 0,3000 "/>
  <g id="_2101562778640">
   <polygon class="fil1" points="1500,169 2200,677 2900,1186 2633,2009 2365,2831 1500,2831 635,2831 367,2009 100,1186 800,677 "/>
   <polygon class="fil2" points="1500,182 2887,1190 2357,2821 643,2821 113,1190 "/>
   <polygon class="fil3" points="1500,290 2784,1223 2294,2733 706,2733 216,1223 "/>
   <polygon class="fil4" points="2771,1228 1500,304 229,1228 714,2722 2286,2722 "/>
   <g>
    <polygon class="fil5" points="1500,631 1546,766 1695,766 1575,849 1620,985 1500,902 1380,985 1425,850 1305,766 1454,766 "/>
    <g>
     <path class="fil5" d="M1984 2192c8,-19 9,-32 2,-38 15,-15 29,-30 43,-45l-1 -1c-59,-9 -67,-98 -22,-147 3,6 2,14 0,24 -2,17 6,31 17,44 20,24 25,47 14,68 0,0 0,1 0,3 12,-14 23,-28 34,-43 -45,-2 -65,-87 -40,-141 4,5 4,13 5,24 1,17 9,30 20,40 19,21 26,43 22,65 0,1 0,2 1,3 9,-13 18,-26 26,-39 -1,-3 -2,-5 -3,-7 -46,0 -67,-87 -42,-142 4,6 4,14 5,24 1,17 9,30 20,41 19,20 27,42 22,64 0,3 2,6 4,10 9,-13 16,-26 24,-39 -3,-5 -5,-9 -6,-13 -47,3 -72,-83 -50,-139 4,5 5,13 6,23 2,17 11,30 22,40 21,19 29,41 25,63 1,4 4,9 8,15 9,-16 16,-32 23,-48 -2,-3 -3,-6 -5,-9 -46,7 -79,-75 -62,-134 5,5 6,13 8,23 3,17 14,29 26,38 22,17 32,37 31,60 1,3 3,7 7,11 8,-19 15,-39 21,-58 -1,-2 -2,-3 -2,-3 -45,12 -88,-66 -78,-126 5,4 7,12 10,22 6,16 18,26 30,34 25,14 37,33 39,56 0,2 2,4 4,6 5,-18 10,-36 13,-54 -2,-2 -4,-4 -5,-6 -42,17 -90,-61 -86,-125 6,4 8,12 12,22 7,16 19,26 32,33 25,13 39,32 42,56 1,2 4,5 8,9 3,-19 6,-37 7,-56 1,-2 1,-3 1,-5 -2,-2 -3,-3 -4,-4 -40,20 -96,-52 -98,-116 6,4 9,11 14,21 8,15 21,24 35,29 26,11 41,28 47,52 1,2 4,4 7,6 1,-18 2,-37 2,-56 -4,-3 -7,-5 -10,-7 -37,25 -101,-40 -111,-103 6,3 11,10 17,19 10,14 24,21 38,25 27,8 44,23 53,45 2,3 6,6 12,9 0,-18 -1,-35 -3,-53 -1,0 -1,-1 -2,-1 -37,31 -112,-33 -129,-100 7,3 12,10 20,19 12,14 28,20 43,23 30,6 50,20 61,43 1,2 3,3 5,4 -2,-17 -5,-34 -8,-52 -2,-1 -4,-2 -6,-3 -36,33 -114,-27 -134,-93 7,3 13,10 21,18 13,14 29,19 44,21 30,4 51,17 64,40 2,2 4,3 8,5 -4,-19 -9,-38 -14,-57 -3,0 -4,-1 -6,-2 -33,36 -116,-16 -143,-79 8,2 14,8 23,15 14,13 30,17 46,17 30,1 52,12 67,33 2,2 5,3 9,5 -7,-21 -14,-41 -23,-61l0 0c-26,41 -117,4 -154,-54 8,0 15,6 25,11 16,10 33,11 48,9 30,-4 54,3 72,22 1,0 3,1 5,1 -7,-14 -14,-29 -21,-44 -27,40 -117,4 -154,-54 8,0 15,5 25,11 16,10 33,11 48,9 30,-4 54,3 72,22 1,0 2,0 2,1 -8,-16 -16,-30 -26,-45 -27,33 -115,7 -154,-40 7,0 15,4 25,8 17,8 34,7 49,4 27,-6 50,-2 69,10 -7,-10 -14,-20 -21,-30 -3,0 -5,0 -7,-1 -23,40 -117,14 -158,-35 8,-1 15,3 26,8 17,8 33,7 49,4 29,-7 53,-2 73,13 2,1 5,2 9,2 -11,-15 -22,-29 -34,-43 -7,1 -13,1 -18,0 -17,37 -107,25 -151,-14 7,-1 15,2 25,4 17,5 32,3 46,-2 27,-8 50,-6 70,5 4,1 11,0 20,-1 -8,-9 -16,-18 -24,-26 -7,2 -13,3 -16,3 -29,20 -127,17 -144,-6 6,-2 12,-3 22,-2 16,2 24,-7 37,-13 23,-11 53,-1 73,6 3,1 12,5 20,4 -11,-11 -23,-22 -35,-32 -6,1 -11,3 -14,3 -27,22 -125,24 -144,1 7,-2 13,-4 23,-3 16,1 23,-9 35,-16 24,-13 54,-4 74,3 3,0 9,3 16,3 -18,-15 -36,-29 -55,-42 -2,0 -4,1 -6,1 -9,37 -95,42 -143,14 7,-2 14,-1 24,0 16,1 30,-4 43,-11 23,-13 45,-15 65,-8 2,0 5,-1 9,-2 -12,-8 -25,-17 -38,-24 -5,1 -9,1 -13,1 -11,37 -101,38 -150,8 7,-2 15,-1 25,1 17,2 32,-2 45,-9 25,-11 48,-13 69,-5 3,0 8,-1 14,-3 -10,-5 -19,-11 -29,-16 0,-1 -1,-1 -1,-2 -2,0 -6,0 -9,-1 -5,1 -10,1 -13,1 -11,24 -89,22 -130,0 5,-1 12,1 21,2 15,2 28,-1 39,-4 22,-7 42,-8 60,-2 3,0 8,0 13,-1 -8,-5 -14,-8 -18,-8 -24,5 -47,-1 -71,-20 -12,-10 -26,-17 -44,-18 -11,0 -20,0 -26,-3 57,-28 150,-10 154,36 5,1 12,4 21,8 1,0 1,0 2,0 0,-3 1,-6 2,-7 -1,-2 -2,-4 -3,-5 -19,-6 -31,-23 -32,-50 -1,-15 -5,-28 -16,-37 -8,-6 -13,-9 -15,-16 58,3 107,62 76,104 0,1 0,2 1,3 3,0 7,2 11,3 8,6 17,11 25,17 0,-4 -1,-6 -2,-8 -15,-10 -20,-28 -14,-52 3,-12 3,-25 -5,-36 -4,-7 -9,-11 -8,-17 50,18 76,82 37,110 1,3 2,6 2,10 14,9 28,19 41,29 1,-4 0,-7 -1,-9 -14,-13 -18,-32 -9,-58 4,-13 5,-27 -1,-40 -4,-7 -8,-13 -7,-19 48,24 68,96 27,123 1,3 1,6 1,11 14,10 27,21 40,32 0,-2 0,-3 0,-5 -13,-15 -16,-37 -6,-65 5,-15 8,-30 2,-45 -3,-9 -7,-15 -5,-22 46,30 61,113 18,140 0,2 0,3 0,5 12,10 24,21 35,32 1,-6 2,-11 1,-14 -13,-16 -13,-37 0,-63 7,-13 11,-28 6,-42 -3,-9 -5,-16 -3,-22 47,34 56,115 7,135 0,4 -1,9 -2,15 11,11 22,22 32,33 1,-2 1,-4 1,-5 -14,-17 -12,-40 5,-67 9,-15 14,-30 10,-46 -3,-9 -5,-16 -3,-23 50,36 54,123 -3,145 0,2 0,4 0,6 13,15 26,31 38,46 0,-1 0,-3 0,-4 -12,-19 -10,-42 8,-69 9,-14 16,-29 12,-46 -2,-9 -4,-16 -1,-23 48,39 48,127 -10,147 0,2 0,4 -1,7 11,14 20,28 30,42 2,-5 3,-8 2,-11 -11,-18 -7,-40 13,-64 11,-13 18,-27 16,-43 -2,-9 -4,-16 0,-23 45,42 39,126 -20,140 -1,4 -2,8 -4,13 4,6 8,12 11,17 5,9 10,19 15,28 3,-4 5,-8 5,-10 -6,-19 1,-38 23,-57 12,-10 22,-21 22,-36 0,-9 0,-15 4,-21 34,46 13,121 -43,124 -1,3 -3,7 -5,11 9,17 16,34 24,51 4,-5 7,-9 7,-12 -6,-19 2,-38 25,-56 13,-9 22,-21 23,-35 1,-9 1,-16 5,-21 32,47 9,122 -47,122 -2,4 -5,9 -8,14 7,18 13,35 18,53 5,-5 7,-9 8,-12 -4,-19 5,-37 28,-53 13,-8 23,-19 25,-33 1,-9 2,-15 6,-20 25,49 -3,121 -55,118 -1,3 -4,7 -8,12 5,17 10,34 13,51 4,-3 7,-6 8,-9 -2,-20 9,-37 33,-51 13,-7 24,-16 27,-30 2,-9 3,-16 8,-20 21,52 -14,121 -65,112 -2,3 -5,7 -8,11 3,16 5,31 7,47 2,-2 4,-4 5,-5 1,-20 14,-35 41,-44 14,-5 26,-13 32,-26 4,-8 6,-14 11,-18 12,55 -34,117 -83,100 -1,1 -3,2 -4,4 2,23 4,46 4,70 4,-3 7,-6 8,-8 0,-19 14,-35 43,-46 15,-6 28,-14 34,-28 3,-8 5,-14 11,-18 16,54 -31,118 -86,104 -2,3 -6,6 -10,9 0,21 -1,43 -3,64 5,-3 9,-6 11,-8 1,-19 16,-33 44,-41 15,-4 29,-11 35,-23 4,-8 6,-14 12,-17 13,51 -37,109 -90,92 -3,3 -8,6 -14,10 -2,17 -4,33 -8,49 7,-2 11,-4 13,-6 4,-18 20,-30 48,-34 15,-2 29,-6 37,-18 5,-6 8,-12 14,-14 5,52 -52,102 -100,77 -3,2 -8,5 -14,8 -4,16 -7,32 -12,47 7,-1 11,-3 13,-5 8,-19 26,-29 54,-29 15,0 29,-3 39,-14 6,-7 10,-13 16,-14 -7,60 -71,106 -112,70 -3,2 -8,4 -14,6 -6,20 -13,40 -21,59 4,-1 6,-2 8,-4 9,-20 29,-31 61,-30 17,0 33,-3 44,-15 7,-7 12,-13 19,-14 -8,62 -81,110 -127,73 -3,1 -6,3 -11,4 -5,14 -12,28 -19,41 1,0 2,0 3,-1 11,-19 33,-26 64,-21 17,3 33,2 46,-8 8,-6 14,-11 21,-11 -17,60 -96,97 -136,53 -1,0 -3,1 -4,1 -7,13 -14,26 -22,40 1,-1 2,-1 3,-1 14,-17 35,-22 65,-13 16,5 31,7 45,-1 8,-5 15,-10 22,-9 -24,56 -105,82 -138,34 -1,0 -3,1 -4,1 -9,15 -19,30 -29,44 4,1 8,0 10,-1 14,-17 36,-21 66,-12 16,5 32,6 46,-2 8,-5 14,-9 22,-8 -25,57 -107,82 -141,34 -3,0 -7,1 -12,1 -6,8 -12,16 -18,24 14,-3 32,0 52,9 17,7 35,12 52,4 10,-4 18,-8 26,-6 -34,58 -123,76 -158,27 -19,22 -40,43 -62,63z"/>
     <g>
      <path class="fil6" d="M1017 2154c-17,4 -32,11 -44,23 -43,-80 -86,-120 -128,-124 -32,-3 -52,-1 -83,19 -41,27 -86,5 -71,-45 -41,-29 -24,-92 36,-86 34,-45 88,-16 86,35 -1,24 15,45 44,59 12,6 13,1 5,-15 -37,-73 -68,-117 -97,-124 -29,-8 -51,-4 -65,7 -54,38 -97,-12 -72,-56 -28,-35 -12,-80 43,-67 9,-47 74,-34 81,15 5,39 -12,50 22,88 11,12 17,4 10,-13 -8,-20 -7,-51 -18,-89 -14,-52 -43,-85 -79,-92 -17,-3 -28,9 -39,15 -36,19 -83,-25 -46,-63 -29,-35 0,-81 54,-53 31,-33 82,-8 66,42 -11,30 -7,50 5,60 8,8 17,17 26,26 -2,-49 -3,-90 0,-125 1,-12 -9,-26 -21,-47 -28,-46 -41,-20 -84,-30 -39,-9 -52,-59 -18,-81 -27,-43 20,-85 67,-44 39,-22 78,13 62,57 -13,34 -32,30 -23,67 2,8 7,18 14,28 5,9 7,8 9,-3 5,-43 12,-78 19,-106 3,-13 1,-26 -6,-39 -9,-15 -15,-29 -21,-38 -10,-19 -31,-25 -54,-30 -31,-8 -38,-64 2,-74 -8,-44 47,-67 79,-26 43,-9 61,41 33,66 -24,22 -36,50 -26,88 4,17 12,17 14,1 5,-35 19,-67 36,-100 6,-12 5,-25 2,-36 -4,-22 -7,-39 -9,-51 -2,-18 -14,-31 -32,-38 -41,-15 -32,-68 10,-71 4,-56 80,-52 84,-5 40,1 44,40 22,56 -33,23 -52,42 -55,63 -3,28 -2,39 4,32 33,-38 60,-67 78,-89 11,-11 15,-28 16,-47 2,-35 -9,-54 -34,-70 -41,-26 -27,-86 27,-83 19,-46 76,-35 75,12 42,15 36,53 6,68 -41,22 -60,45 -60,71 0,14 -1,14 7,6 32,-34 64,-60 92,-82 8,-6 12,-13 12,-26 1,-34 -1,-52 -8,-56 -57,-27 -30,-96 36,-82 25,-55 92,-28 74,27 45,14 28,79 -13,81 -28,2 -38,-4 -51,12 -20,24 -27,31 -16,26 41,-18 82,-40 130,-58 20,-8 23,-30 23,-44 1,-46 68,-50 80,-14 57,-7 62,60 21,76 1,42 -49,56 -67,29 -17,-25 -19,-41 -61,-28 -42,14 -85,38 -131,71 77,6 94,-7 104,-28 17,-36 78,-30 71,15 51,9 37,58 1,66 6,40 -59,42 -74,9 -32,-73 -143,-63 -213,22 -11,13 -9,21 5,19 43,-6 68,-35 80,-63 12,-25 51,-27 63,8 57,-8 59,67 6,68 5,29 -41,47 -62,21 -30,-37 -114,-28 -155,19 -29,33 -46,60 -50,85 36,-8 55,-27 60,-60 6,-44 62,-65 77,-25 57,0 60,48 22,68 7,33 -47,55 -64,36 -32,-35 -92,-17 -129,36 -16,22 -23,55 -30,92 38,-14 53,-38 47,-71 -2,-13 0,-23 5,-30 18,-25 49,-26 60,-8 47,-25 82,33 44,59 18,35 -24,75 -61,52 -17,-11 -27,-16 -45,-10 -44,17 -68,43 -73,82 -3,21 -8,46 -11,77 31,-19 44,-38 36,-56 -7,-18 -11,-32 -7,-42 9,-23 25,-28 47,-14 42,-37 86,2 61,45 20,17 11,43 -17,53 -20,7 -37,3 -49,-4 -9,-4 -18,-2 -25,2 -34,23 -48,45 -47,69 1,18 -3,45 2,81 1,15 11,15 20,1 13,-23 13,-43 5,-61 -22,-42 8,-71 45,-60 46,-40 97,9 62,45 29,15 8,58 -26,53 -30,-4 -49,1 -68,22 -23,24 -35,40 -25,103 12,73 25,94 34,67 11,-33 14,-52 2,-57 -46,-36 -41,-78 4,-86 26,-50 86,-33 89,15 40,7 30,74 -11,77 -30,2 -44,8 -55,30 -17,34 -25,58 -5,98 41,81 60,110 63,85 3,-22 -2,-38 -15,-50 -51,-47 -42,-88 6,-84 19,-67 88,-50 80,7 48,8 43,53 -10,80 -28,14 -43,30 -45,54 -1,17 8,32 25,49 23,24 44,46 66,63z"/>
      <path class="fil7" d="M757 2027c10,8 28,8 33,-8 5,-17 -1,-24 -24,-27 -11,-1 -14,-14 -4,-12 19,3 28,1 29,-20 2,-23 -22,-27 -36,-21 -8,3 -13,7 -14,13 -1,7 -6,10 -14,6 -19,-8 -34,2 -39,15 -11,23 7,37 22,40 7,1 11,5 3,11 -11,9 -6,35 15,38 28,2 35,-19 27,-27 -8,-8 -4,-13 2,-8z"/>
      <path class="fil7" d="M879 1931c4,24 23,25 28,16 5,-8 10,-6 8,0 -5,10 -1,26 14,26 16,0 20,-6 17,-27 -2,-9 9,-15 10,-6 1,17 5,24 23,20 20,-4 18,-25 10,-36 -5,-5 -9,-9 -15,-8 -6,1 -9,-2 -8,-11 2,-18 -10,-27 -22,-29 -21,-4 -29,14 -28,28 0,6 -2,10 -9,5 -10,-7 -31,4 -28,22z"/>
      <path class="fil7" d="M727 1864c8,-17 3,-25 -21,-32 -10,-3 -11,-18 -1,-14 19,7 28,7 33,-15 6,-23 -17,-32 -34,-28 -8,2 -14,4 -16,11 -2,7 -8,9 -16,4 -18,-13 -35,-4 -43,8 -15,21 1,39 16,45 6,3 10,7 1,12 -13,7 -12,36 9,42 28,8 39,-13 32,-23 -6,-9 -1,-14 4,-8 8,10 28,14 36,-2z"/>
      <path class="fil7" d="M803 1771c5,27 27,28 32,19 6,-10 11,-8 8,-1 -5,11 0,29 16,30 18,0 23,-8 19,-30 -1,-10 11,-17 11,-7 2,19 6,26 26,22 22,-4 21,-28 11,-40 -5,-6 -10,-10 -16,-9 -7,1 -11,-3 -10,-12 3,-20 -10,-31 -24,-33 -24,-4 -33,16 -32,31 1,7 -1,12 -9,6 -11,-8 -35,4 -32,24z"/>
      <path class="fil7" d="M685 1669c10,-14 7,-23 -13,-33 -9,-4 -8,-18 1,-13 16,10 24,11 32,-8 9,-21 -11,-33 -26,-32 -8,1 -13,2 -16,8 -4,6 -9,7 -15,1 -14,-14 -31,-9 -40,0 -16,18 -5,37 7,45 6,3 8,8 0,11 -13,4 -17,31 1,40 24,11 37,-6 33,-16 -5,-10 0,-13 4,-7 6,11 23,17 32,4z"/>
      <path class="fil7" d="M805 1604c-7,22 11,32 19,27 9,-5 13,-1 7,3 -9,7 -12,23 1,29 15,7 22,3 28,-16 3,-8 16,-9 13,-1 -7,16 -7,23 12,28 20,5 28,-14 25,-27 -1,-7 -3,-12 -9,-14 -6,-2 -8,-6 -3,-13 11,-15 4,-29 -6,-36 -19,-12 -35,0 -40,13 -2,5 -6,8 -10,1 -6,-12 -31,-12 -37,6z"/>
      <path class="fil7" d="M682 1478c5,13 23,21 34,9 13,-14 11,-23 -10,-37 -9,-6 -5,-20 3,-14 16,13 25,15 36,-4 13,-21 -7,-37 -24,-38 -8,0 -14,1 -18,7 -5,6 -10,6 -16,-1 -14,-17 -33,-14 -44,-5 -20,16 -10,38 2,48 6,4 8,10 -2,12 -15,3 -22,31 -4,43 24,15 41,-2 38,-13 -4,-11 2,-14 5,-7z"/>
      <path class="fil7" d="M810 1475c-7,23 10,33 18,27 8,-5 12,-1 7,3 -9,7 -12,23 1,29 14,8 20,3 27,-16 2,-8 14,-9 11,-1 -6,16 -6,24 12,28 19,6 27,-14 24,-27 -2,-7 -4,-12 -9,-14 -6,-2 -7,-6 -3,-13 11,-14 4,-29 -6,-35 -17,-13 -32,-1 -37,12 -3,5 -7,8 -10,1 -6,-11 -29,-11 -35,6z"/>
      <path class="fil7" d="M731 1302c0,13 12,27 27,20 17,-7 18,-17 5,-36 -6,-8 2,-20 7,-11 10,17 17,22 34,9 19,-14 7,-35 -8,-41 -7,-4 -13,-5 -19,-2 -6,4 -11,2 -13,-6 -6,-20 -24,-24 -37,-20 -24,7 -24,30 -16,43 3,6 3,11 -6,10 -14,-3 -31,19 -19,36 15,22 37,14 38,2 0,-11 7,-11 7,-4z"/>
      <path class="fil7" d="M878 1317c-14,19 -1,34 9,31 9,-2 11,3 5,5 -10,4 -19,18 -9,28 11,12 19,10 31,-6 5,-8 17,-4 11,3 -11,12 -13,20 2,30 16,11 30,-5 32,-18 0,-7 0,-13 -5,-16 -5,-4 -4,-9 2,-13 15,-11 13,-26 6,-36 -12,-18 -31,-11 -40,-1 -3,4 -8,6 -9,-2 -2,-12 -24,-20 -35,-5z"/>
      <path class="fil7" d="M978 1247c8,-5 17,2 10,6 -14,9 -19,15 -8,29 13,16 31,5 36,-7 3,-7 5,-12 1,-16 -3,-6 -2,-10 6,-12 17,-6 20,-21 17,-33 -7,-20 -27,-19 -38,-12 -5,3 -10,3 -8,-5 2,-13 -17,-27 -32,-16 -19,14 -11,32 -2,33 10,0 10,5 4,6 -11,0 -23,11 -17,24 7,14 15,15 31,3z"/>
      <path class="fil7" d="M860 1123c-4,-9 6,-17 9,-8 5,17 11,23 29,15 20,-9 13,-30 2,-39 -6,-4 -11,-7 -17,-5 -7,3 -11,0 -12,-8 -1,-19 -16,-26 -29,-26 -24,2 -28,22 -24,35 2,6 1,11 -8,8 -12,-6 -32,10 -25,28 10,23 31,20 34,10 4,-10 9,-9 8,-2 -3,11 6,26 21,23 17,-3 19,-11 12,-31z"/>
      <path class="fil7" d="M948 994c-6,10 -4,27 12,29 17,3 23,-4 22,-25 -1,-9 12,-14 11,-5 0,18 3,26 23,25 22,-2 23,-24 15,-36 -4,-7 -8,-11 -15,-11 -7,0 -10,-4 -8,-12 6,-18 -7,-30 -19,-33 -24,-7 -34,11 -35,25 0,6 -3,10 -10,4 -10,-9 -35,-1 -33,18 1,25 22,29 29,21 6,-8 11,-5 8,0z"/>
      <path class="fil7" d="M1093 1066c-21,9 -16,26 -7,28 10,2 10,6 3,6 -11,-1 -24,7 -20,19 4,13 12,14 30,6 8,-3 17,4 9,7 -16,6 -21,11 -12,25 9,15 29,8 36,-2 4,-5 6,-10 4,-14 -3,-5 -1,-9 7,-10 18,-3 23,-15 22,-26 -4,-19 -23,-20 -36,-16 -5,2 -10,1 -7,-5 4,-11 -13,-26 -29,-18z"/>
      <path class="fil7" d="M1102 940c19,6 26,0 29,-21 1,-9 15,-11 13,-2 -3,17 -1,25 21,28 25,3 30,-19 23,-33 -4,-7 -8,-12 -15,-13 -7,-1 -10,-6 -6,-13 9,-17 -3,-31 -16,-37 -24,-11 -40,4 -43,18 -1,6 -5,9 -11,2 -10,-11 -38,-8 -40,11 -3,25 20,33 28,27 9,-7 14,-3 9,2 -9,8 -9,25 8,31z"/>
      <path class="fil7" d="M1216 1019c9,4 7,9 1,7 -10,-4 -25,1 -24,15 2,14 9,18 28,14 9,-2 16,8 7,9 -16,2 -23,6 -17,22 6,19 26,16 36,7 5,-4 8,-8 7,-14 -2,-5 1,-9 9,-8 18,2 26,-11 26,-22 1,-20 -17,-26 -30,-25 -6,1 -11,-1 -7,-7 7,-10 -6,-29 -23,-26 -23,5 -22,24 -13,28z"/>
      <path class="fil7" d="M1305 939c7,-5 17,2 9,6 -15,8 -19,13 -8,27 11,15 30,6 36,-5 3,-6 4,-11 1,-16 -3,-5 -1,-9 6,-11 18,-4 21,-18 18,-29 -6,-19 -25,-19 -37,-13 -5,2 -10,2 -8,-5 2,-12 -16,-26 -31,-16 -20,12 -13,29 -3,30 9,1 10,6 3,6 -11,0 -23,10 -18,22 7,13 15,14 32,4z"/>
     </g>
    </g>
   </g>
   <g>
    <g>
     <path class="fil1" d="M1500 2245c149,0 292,-51 403,-146 29,-25 51,-5 55,0l101 84c107,-48 217,-72 324,-37l22 7c-34,19 -57,32 -86,58 -15,14 -28,29 -39,45 49,14 83,40 101,86l5 13c-41,-4 -70,-7 -110,1 -28,5 -54,15 -77,30 -33,21 -61,32 -85,32 -19,0 -33,-6 -44,-16l-58 -56c-143,102 -328,152 -512,152 -184,0 -369,-50 -512,-152l-58 56c-11,10 -25,16 -44,16 -24,0 -52,-11 -85,-32 -23,-15 -49,-25 -77,-30 -40,-8 -69,-5 -110,-1l5 -13c18,-46 52,-72 101,-86 -11,-16 -24,-31 -39,-45 -29,-26 -52,-39 -86,-58l22 -7c107,-35 217,-11 324,37l101 -84c4,-5 26,-25 55,0 111,95 254,146 403,146z"/>
     <path class="fil7" d="M932 2190c-75,-33 -145,-50 -209,-50 -36,0 -71,5 -104,16 52,28 91,64 116,106 -54,12 -89,39 -106,81 0,0 0,0 1,0 14,-1 28,-2 41,-2 52,0 97,12 136,36 32,20 57,31 77,31 17,0 29,-8 37,-23 10,-19 -8,-46 -52,-83 -22,-19 -21,-42 4,-63l59 -49zm1136 0c75,-33 145,-50 209,-50 36,0 71,5 104,16 -52,28 -91,64 -116,106 54,12 89,39 106,81 0,0 0,0 -1,0 -14,-1 -28,-2 -41,-2 -52,0 -97,12 -136,36 -32,20 -57,31 -77,31 -17,0 -29,-8 -37,-23 -10,-19 8,-46 52,-83 22,-19 21,-42 -4,-63l-59 -49zm-568 65c158,0 302,-57 409,-149 25,-21 42,0 42,0l161 135c-127,149 -354,247 -612,247 -258,0 -485,-98 -612,-247l161 -135c0,0 17,-21 42,0 107,92 251,149 409,149z"/>
    </g>
    <path class="fil8" d="M1072 2166l-89 95 -25 -24 89 -94 25 23zm70 51l-50 36 -25 70 -28 -20 21 -53 -33 45 -27 -20 76 -105 28 19 -30 41 42 -32 26 19zm73 34l-58 117 -30 -15 24 -49 -9 -5 -24 49 -31 -15 58 -116 30 15 -20 41 9 5 20 -42 31 15zm40 14l-36 97 19 8 -9 24 -51 -19 45 -122 32 12zm84 24l-14 130 -34 -8 4 -23 -11 -4 -8 22 -34 -9 50 -121 47 13zm-39 76c3,-15 6,-33 10,-54 -10,23 -17,40 -21,51l11 3zm121 -25l-31 -4 2 -9c0,-4 0,-7 -1,-9 0,-1 -1,-2 -3,-2 -2,0 -4,0 -5,2 -1,1 -2,4 -3,7 0,4 0,8 1,10 1,2 4,5 8,9 14,11 23,19 26,26 3,6 4,15 2,28 -1,9 -3,16 -6,20 -3,4 -7,7 -14,9 -6,2 -14,3 -22,2 -9,-1 -16,-4 -22,-8 -6,-5 -10,-9 -11,-15 -1,-5 -1,-13 0,-23l1 -8 31 4 -2 16c0,4 0,8 0,9 1,2 3,2 5,3 2,0 4,-1 5,-2 1,-2 2,-4 3,-8 1,-7 0,-13 -1,-15 -2,-3 -7,-7 -15,-14 -7,-6 -12,-11 -15,-14 -2,-3 -4,-7 -5,-11 -1,-5 -1,-11 -1,-17 2,-10 4,-17 7,-22 3,-4 8,-7 14,-9 6,-2 13,-2 20,-1 9,1 16,3 22,7 6,4 10,8 11,12 1,5 1,12 0,22l-1 5zm48 -35l33 0c11,0 19,0 25,2 5,2 10,5 13,10 3,5 5,13 5,24 0,8 -1,13 -3,16 -3,3 -7,6 -14,7 8,2 13,5 16,9 3,4 4,10 4,19l0 12c0,9 -1,15 -3,19 -2,5 -5,7 -9,9 -5,2 -14,3 -27,3l-39 0 -1 -130zm34 22l0 29c1,0 3,0 3,0 4,0 6,-1 7,-3 0,-1 1,-6 1,-14 0,-4 -1,-7 -1,-8 -1,-2 -2,-3 -3,-4 -1,0 -4,0 -7,0zm0 49l0 36c5,0 8,-1 9,-2 2,-1 2,-5 2,-10l0 -12c0,-6 -1,-9 -2,-10 -1,-1 -4,-2 -9,-2zm54 -73l56 -5 3 26 -23 2 3 25 21 -2 2 24 -21 2 3 29 24 -3 3 26 -59 6 -12 -130zm64 -6l24 -5c15,-3 26,-4 32,-4 6,0 11,2 15,7 5,4 8,11 10,22 2,10 2,17 0,21 -2,4 -6,7 -13,9 7,0 11,2 14,4 3,2 5,5 6,7 1,2 2,8 4,18l7 34 -31 6 -8 -42c-2,-7 -3,-11 -4,-13 -2,-1 -5,-2 -9,-1l11 58 -33 6 -25 -127zm38 15l5 28c4,0 6,-1 8,-3 1,-1 1,-4 0,-10l-1 -7c-1,-4 -2,-7 -4,-8 -2,-1 -5,-1 -8,0zm101 -50l55 120 -33 9 -8 -21 -12 3 5 23 -34 10 -20 -130 47 -14zm6 86c-6,-14 -12,-31 -20,-51 4,25 7,43 9,54l11 -3zm100 -135l56 117 -26 13 -38 -79 27 84 -19 9 -48 -72 37 78 -26 13 -57 -118 40 -19c4,7 9,15 15,24l19 27 -20 -58 40 -19zm47 -35l91 94 -28 20 -15 -18 -10 8 12 20 -28 20 -62 -116 40 -28zm34 78c-10,-11 -22,-25 -36,-42 12,23 21,39 27,49l9 -7zm4 -112l71 76 15 -14 17 19 -39 37 -89 -95 25 -23z"/>
   </g>
   <g>
    <path class="fil3" d="M1243 1310c94,5 179,39 258,92 78,-53 163,-87 258,-92l106 302 -7 66 -1 0 1 2 23 41 1 2 -2 1 -169 94 45 187 -2 3 -36 38 -1 2 -2 -1 -215 -116 -215 116 -2 1 -1 -2 -36 -38 -2 -3 45 -187 -169 -94 -2 -1 1 -2 23 -41 1 -2 -7 -66 107 -302z"/>
    <polygon class="fil9" points="1875,1721 1860,1694 1499,1879 1140,1694 1125,1721 1444,1898 1253,2007 1284,2041 1500,1925 1716,2041 1747,2007 1556,1898 "/>
    <path class="fil10" d="M1859 1612c-140,0 -253,62 -356,151l0 -356 3 -2 2 -1c37,-25 76,-46 117,-61 42,-15 85,-25 130,-27l102 290 2 6z"/>
    <path class="fil11" d="M1142 1612c140,0 254,62 356,151l0 -356 -3 -2 -1 -1c-38,-25 -77,-46 -118,-61 -41,-15 -84,-25 -130,-27l-102 290 -2 6z"/>
    <path class="fil5" d="M1136 1612l7 66c141,12 245,63 313,150l89 0c68,-87 172,-138 313,-150l7 -66c-144,-2 -260,62 -364,153 -105,-91 -220,-155 -365,-153z"/>
    <path class="fil3" d="M1326 1405c-3,-3 -8,-1 -11,3 1,-1 3,-1 4,-1 3,-1 4,0 5,2 3,3 6,3 11,2 5,-1 6,1 7,3 2,5 8,6 15,4 4,-1 7,0 9,4 2,5 6,6 14,6 2,0 3,2 5,4 4,5 10,6 18,4 6,-1 10,3 14,8 3,5 10,5 19,3 -10,-1 -17,-4 -19,-8 -3,-7 -8,-9 -16,-6 -6,2 -11,-1 -14,-8 -3,-5 -8,-6 -15,-5 -3,0 -4,-2 -5,-5 -2,-4 -8,-5 -16,-3 -4,1 -6,-1 -7,-3 -3,-4 -7,-4 -13,-1 -2,1 -2,-1 -5,-3zm-27 89c-4,-4 -9,-1 -13,4 2,-2 4,-2 5,-2 3,-1 4,0 5,2 3,3 7,3 12,2 5,-1 6,1 7,4 2,5 8,5 15,4 5,-1 8,0 10,3 2,6 7,8 15,7 2,0 3,2 5,4 4,6 10,7 19,5 7,-1 11,2 14,8 4,5 11,6 20,3 -10,-2 -17,-4 -19,-9 -4,-7 -8,-9 -17,-6 -7,2 -12,-1 -15,-8 -3,-5 -8,-6 -16,-5 -3,0 -4,-3 -5,-5 -2,-5 -8,-6 -17,-4 -4,1 -5,-1 -7,-3 -3,-4 -8,-4 -13,-1 -2,1 -3,-1 -5,-3zm-19 43c-5,-4 -10,-1 -14,4 2,-1 4,-2 6,-2 3,-1 4,0 6,2 3,4 7,3 13,2 5,-2 7,1 8,3 2,5 10,6 18,4 5,-2 9,0 10,3 3,6 9,7 18,7 2,-1 4,1 6,3 5,6 12,7 21,5 8,-2 13,2 17,7 4,6 12,6 23,2 -11,0 -20,-2 -23,-7 -4,-8 -9,-9 -19,-6 -7,2 -13,-1 -17,-8 -3,-5 -10,-6 -18,-5 -4,1 -5,-2 -7,-5 -2,-4 -9,-5 -19,-3 -4,1 -6,0 -8,-3 -3,-4 -9,-4 -15,-1 -2,2 -3,0 -6,-2zm35 -89c-4,-3 -9,-1 -12,3 1,-1 3,-1 4,-1 3,-1 4,0 5,2 3,3 6,3 11,2 5,-1 6,1 7,3 2,5 8,6 15,4 4,-1 7,0 9,4 2,5 6,6 14,6 2,0 4,2 5,4 4,5 10,6 18,4 6,-1 11,2 14,8 3,5 10,5 19,3 -10,-1 -16,-4 -19,-8 -3,-7 -8,-9 -16,-6 -6,2 -11,-2 -14,-8 -2,-5 -8,-6 -15,-5 -3,0 -4,-2 -5,-5 -2,-4 -8,-5 -16,-3 -4,1 -5,-1 -7,-3 -2,-4 -7,-4 -12,-1 -3,1 -3,-1 -5,-3z"/>
    <path class="fil3" d="M1675 1405c4,-3 8,-1 12,3 -2,-1 -3,-1 -5,-1 -2,-1 -4,0 -5,2 -2,3 -6,3 -11,2 -5,-1 -6,1 -7,3 -1,5 -7,6 -14,4 -5,-1 -8,0 -9,4 -2,5 -7,6 -15,6 -2,0 -3,2 -4,4 -4,5 -11,6 -18,4 -7,-1 -11,3 -14,8 -4,5 -10,5 -19,3 9,-1 16,-4 18,-8 4,-7 8,-9 16,-6 7,2 11,-1 15,-8 2,-5 7,-6 15,-5 2,0 3,-2 5,-5 2,-4 7,-5 16,-3 3,1 5,-1 6,-3 3,-4 8,-4 13,-1 2,1 3,-1 5,-3zm28 89c4,-4 9,-1 12,4 -2,-2 -3,-2 -5,-2 -2,-1 -4,0 -5,2 -2,3 -6,3 -11,2 -5,-1 -7,1 -8,4 -1,5 -8,5 -15,4 -5,-1 -8,0 -9,3 -3,6 -7,8 -15,7 -3,0 -4,2 -6,4 -4,6 -10,7 -18,5 -7,-1 -11,2 -15,8 -3,5 -10,6 -20,3 10,-2 17,-4 20,-9 3,-7 8,-9 16,-6 7,2 12,-1 15,-8 3,-5 8,-6 16,-5 3,0 4,-3 5,-5 3,-5 9,-6 17,-4 4,1 6,-1 7,-3 3,-4 8,-4 14,-1 2,1 2,-1 5,-3zm18 43c5,-4 10,-1 14,4 -2,-1 -4,-2 -5,-2 -3,-1 -5,0 -6,2 -3,4 -8,3 -13,2 -6,-2 -7,1 -9,3 -2,5 -9,6 -17,4 -5,-2 -9,0 -11,3 -3,6 -8,7 -18,7 -2,-1 -4,1 -5,3 -5,6 -13,7 -22,5 -8,-2 -13,2 -17,7 -4,6 -12,6 -22,2 11,0 19,-2 22,-7 4,-8 10,-9 19,-6 8,2 13,-1 18,-8 3,-5 9,-6 18,-5 3,1 4,-2 6,-5 2,-4 9,-5 19,-3 4,1 6,0 8,-3 3,-4 9,-4 15,-1 3,2 4,0 6,-2zm-34 -89c4,-3 8,-1 12,3 -2,-1 -4,-1 -5,-1 -3,-1 -4,0 -5,2 -2,3 -6,3 -11,2 -5,-1 -6,1 -7,3 -2,5 -8,6 -15,4 -4,-1 -7,0 -8,4 -3,5 -7,6 -15,6 -2,0 -3,2 -5,4 -4,5 -10,6 -18,4 -6,-1 -10,2 -14,8 -3,5 -10,5 -18,3 9,-1 16,-4 18,-8 3,-7 8,-9 16,-6 7,2 11,-2 14,-8 3,-5 8,-6 16,-5 2,0 3,-2 4,-5 2,-4 8,-5 17,-3 3,1 5,-1 6,-3 3,-4 7,-4 13,-1 2,1 3,-1 5,-3z"/>
    <path class="fil12" d="M1249 1576c39,3 74,11 106,24 32,11 61,27 90,46l11 -213c-22,-15 -44,-28 -68,-39 -24,-11 -49,-19 -76,-22l0 0 -2 0 0 0c-6,-1 -15,-2 -18,6l-52 165 0 0c-1,5 -2,10 -3,14 0,5 0,9 2,12 1,3 3,5 7,6 1,1 2,1 3,1zm105 28c-32,-13 -67,-21 -105,-24 -2,0 -3,0 -4,-1 -5,-1 -8,-4 -10,-8 -2,-4 -2,-9 -2,-15 1,-4 2,-9 3,-14l0 0 52 -165c4,-11 15,-10 23,-9l1 0c28,3 54,11 78,22 24,11 47,25 70,40l1 1 0 1 -12 218 -1 4 -3 -2c-29,-20 -59,-36 -91,-48z"/>
    <path class="fil12" d="M1752 1576c-38,3 -73,11 -106,24 -31,11 -61,27 -89,46l-12 -213c22,-15 45,-28 68,-39 24,-11 49,-19 76,-22l0 0 2 0 0 0c7,-1 15,-2 18,6l52 165 0 0c2,5 3,10 3,14 0,5 0,9 -1,12 -2,3 -4,5 -7,6 -1,1 -2,1 -4,1zm-104 28c32,-13 66,-21 105,-24 1,0 3,0 4,-1 4,-1 8,-4 9,-8 2,-4 3,-9 2,-15 0,-4 -1,-9 -3,-14l0 0 -52 -165c-4,-11 -14,-10 -22,-9l-2 0c-28,3 -53,11 -78,22 -24,11 -47,25 -69,40l-1 1 0 1 12 218 0 4 3 -2c29,-20 59,-36 92,-48z"/>
    <path class="fil3" d="M1142 1617l6 56c69,6 130,22 181,47 52,25 95,60 130,103l84 0c34,-43 77,-78 129,-103 52,-25 112,-41 182,-47l5 -56c-69,0 -131,15 -189,42 -59,26 -114,65 -166,110l-3 3 -4 -3c-52,-45 -106,-84 -166,-110 -57,-27 -120,-42 -189,-42zm147 201l-169 -94 -2 -1 1 -2 23 -41 1 -2 -7 -66 107 -302c94,5 179,39 258,92 78,-53 163,-87 258,-92l106 302 -7 66 -1 0 1 2 23 41 1 2 -2 1 -169 94 45 187 -2 3 -36 38 -1 2 -2 -1 -215 -116 -215 116 -2 1 -1 -2 -36 -38 -2 -3 45 -187zm206 -413l-1 -1c-38,-25 -77,-46 -118,-61 -41,-15 -84,-25 -130,-27l-102 290 -2 6c140,0 254,62 356,151l0 -356 -3 -2zm364 207l-2 -6 -102 -290c-45,2 -88,12 -130,27 -41,15 -80,36 -117,61l-2 1 -3 2 0 356c103,-89 216,-151 356,-151zm1 82l-298 157 0 -6 296 -155 -3 -5 -354 185 -1 1 -1 -1 -354 -185 -3 5 296 154 0 6 -298 -156 -15 27 315 175 4 2 -4 2 -187 107 31 34 215 -115 1 -1 1 1 215 115 31 -34 -187 -107 -4 -2 4 -2 315 -175 -15 -27zm-305 160l-36 19 -2 -5 38 -19 0 5zm-110 -6l39 20 -3 5 -36 -19 0 -6z"/>
    <polygon class="fil13" points="1145,1685 1142,1690 1438,1844 1438,1850 1445,1854 1445,1848 1484,1868 1481,1873 1500,1883 1519,1873 1517,1868 1555,1849 1555,1854 1562,1851 1562,1845 1858,1690 1855,1685 1500,1871 "/>
   </g>
  </g>
 </g>
</svg>
